<svg width="580" height="400" xmlns="http://www.w3.org/2000/svg">
 <!-- Created with SVG Editor - http://github.com/mzalive/SVG Editor/ -->

 <g>
  <title>background</title>
  <rect fill="#fff" id="canvas_background" height="402" width="582" y="-1" x="-1"/>
  <g display="none" overflow="visible" y="0" x="0" height="100%" width="100%" id="canvasGrid">
   <rect fill="url(#gridpattern)" stroke-width="0" y="0" x="0" height="100%" width="100%"/>
  </g>
 </g>
 <g>
  <title>Layer 1</title>
  <text font-style="italic" font-weight="bold" xml:space="preserve" text-anchor="start" font-family="'Palatino Linotype', 'Book Antiqua', Palatino, serif" font-size="206" id="svg_2" y="318.333326" x="145.413574" stroke-width="0" stroke="#000" fill="#000000">CV</text>
  <path id="svg_4" d="m484.485578,139.020405c-0.057762,-31.447605 -25.877499,-56.927571 -57.747834,-56.970299l0,-0.014243l-176.99805,0c-7.292487,-23.101456 -29.039983,-39.99315 -54.946364,-40.035877l-41.516635,0c-31.884776,0.028485 -57.718953,25.522694 -57.776715,56.970299l0,202.073649c0.057762,31.41912 25.89194,56.899086 57.776715,56.956056l273.475488,0c31.841454,-0.05697 57.690072,-25.536936 57.747834,-56.956056l0,-162.023529l-0.014441,0zm-331.208882,-68.549512l41.516635,0c15.104835,-0.05697 27.68257,11.878307 28.635648,26.71907l0.837553,13.345292l202.485653,0c15.783541,0.028485 28.837816,12.903773 28.866697,28.485149l0,7.050074c-8.534376,-4.913688 -18.310641,-7.933114 -28.881137,-7.947357l-273.475488,0c-10.570496,0.014243 -20.361202,3.047911 -28.881137,7.961599l0,-47.128679c0.043322,-15.581377 13.097596,-28.456664 28.895578,-28.485149zm273.461048,259.043948l-273.461048,0c-15.783541,-0.028485 -28.837816,-12.932258 -28.895578,-28.485149l0,-105.93627l0.014441,0c0.028881,-15.595619 13.083155,-28.470907 28.881137,-28.499392l273.475488,0c15.783541,0.028485 28.751172,12.83256 28.881137,28.356966l0,106.064453c-0.057762,15.595619 -13.112036,28.470907 -28.895578,28.499392z" stroke-width="0" stroke="#000" fill="#e2dede"/>
 </g>
</svg>