<?xml version="1.0" encoding="utf-8"?><svg xmlns="http://www.w3.org/2000/svg" xmlns:xlink="http://www.w3.org/1999/xlink"><symbol viewBox="0 0 23 35" id="icon-baloon" xmlns="http://www.w3.org/2000/svg"><path fill-rule="evenodd" d="M11.5-.002C5.158-.002-.002 5.192-.002 11.576c0 2.572 1.631 6.764 4.987 12.817 2.373 4.281 4.707 7.85 4.805 8l1.71 2.609 1.71-2.609c.098-.15 2.432-3.719 4.805-8 3.356-6.053 4.986-10.245 4.986-12.817C23.002 5.192 17.842-.002 11.5-.002zm0 17.502c-3.293 0-5.962-2.687-5.962-6.002S8.207 5.496 11.5 5.496c3.293 0 5.962 2.687 5.962 6.002S14.793 17.5 11.5 17.5z"/></symbol><symbol viewBox="0 0 512 512" id="icon-focused" xmlns="http://www.w3.org/2000/svg"><path d="M256 362.668c-58.816 0-106.668-47.852-106.668-106.668S197.184 149.332 256 149.332 362.668 197.184 362.668 256 314.816 362.668 256 362.668zm0-181.336c-41.172 0-74.668 33.496-74.668 74.668s33.496 74.668 74.668 74.668 74.668-33.496 74.668-74.668-33.496-74.668-74.668-74.668zm0 0"/><path d="M256 469.332c-117.633 0-213.332-95.7-213.332-213.332S138.368 42.668 256 42.668 469.332 138.368 469.332 256 373.632 469.332 256 469.332zm0-394.664c-99.988 0-181.332 81.344-181.332 181.332S156.012 437.332 256 437.332 437.332 355.988 437.332 256 355.988 74.668 256 74.668zm0 0"/><path d="M256 106.668c-8.832 0-16-7.168-16-16V16c0-8.832 7.168-16 16-16s16 7.168 16 16v74.668c0 8.832-7.168 16-16 16zM256 512c-8.832 0-16-7.168-16-16v-74.668c0-8.832 7.168-16 16-16s16 7.168 16 16V496c0 8.832-7.168 16-16 16zM90.668 272H16c-8.832 0-16-7.168-16-16s7.168-16 16-16h74.668c8.832 0 16 7.168 16 16s-7.168 16-16 16zM496 272h-74.668c-8.832 0-16-7.168-16-16s7.168-16 16-16H496c8.832 0 16 7.168 16 16s-7.168 16-16 16zm0 0"/></symbol><symbol viewBox="0 0 512.007 512.007" id="icon-forward-thinking" xmlns="http://www.w3.org/2000/svg"><path d="M477.994 124.391a141.454 141.454 0 00-51.016-73.371c-48.142-37.762-93.15-53.416-145.8-50.725a571.88 571.88 0 00-82.542 11.792c-38.5 7.75-66.458 21.283-85.492 41.375a161.824 161.824 0 00-34.234 55.795 225.06 225.06 0 00-7.717 27.783l-.717 3.088a108.02 108.02 0 01-7.233 19.258c-1.775 3.958-3.541 7.921-5.058 11.95a29.081 29.081 0 00-2.3 14.362 32.558 32.558 0 0012.45 19.012c4.183 3.833 6.933 6.525 6.958 8.975a14.624 14.624 0 01-1.492 3.642 330.21 330.21 0 01-37.35 60.758c-6.125 7.479-12.55 16.204-11.25 25.087a26.434 26.434 0 0012.367 15.913 62.91 62.91 0 008.9 5.163c3.683 1.875 9.85 5.021 10.275 7.267a14.505 14.505 0 01-.934 8.558c-1.267 2.671-2.583 4.979-3.717 6.983-3.133 5.542-8.383 14.817-.467 21.454 1.842 1.629 4.992 4.105 7.875 6.308a21.52 21.52 0 00-2.75 12.358 12.241 12.241 0 005.025 8.296c1.908 1.354 3.95 2.533 5.975 3.692 5.017 2.859 6.975 4.192 7.65 6.854a24.07 24.07 0 01-.925 10.346c-.492 2.237-.975 4.475-1.275 6.708a49.818 49.818 0 002.859 22.929c4.428 16.203 20.758 26.112 37.175 22.558a696.675 696.675 0 0071.991-21.529c19.183 11.329 31.3 45.617 34.458 58.475a8.55 8.55 0 008.292 6.5h215.75a8.536 8.536 0 008.159-11.029 59.045 59.045 0 00-9.609-16.583 66.021 66.021 0 01-6.15-9.388 168.296 168.296 0 01-9.642-24.408 282.878 282.878 0 01-10.058-50.462 144.284 144.284 0 0111.158-74.908 191.645 191.645 0 0123.167-36.563c5.158-6.938 10.483-14.112 15.283-21.679a131.226 131.226 0 0020.883-70.133 255.3 255.3 0 00-8.922-72.461zm-8.142 72.22a114.483 114.483 0 01-18.242 61.246c-4.458 7.025-9.591 13.942-14.558 20.634a208.067 208.067 0 00-25.108 39.908 161.325 161.325 0 00-12.459 83.788 299.356 299.356 0 0010.692 53.45 185.9 185.9 0 0010.583 26.808 79.886 79.886 0 007.742 12.025c.117.154.233.313.341.471H234.436a136.205 136.205 0 00-30.083-54.521c2.233-.779 4.35-1.521 6.317-2.213 6.391-2.237 11.208-3.929 13.633-4.692 36.583-11.483 54.883-28.108 54.383-49.417a8.536 8.536 0 00-17.066.4c.208 8.792-6.983 21.608-42.442 32.738-2.517.796-7.525 2.542-14.15 4.867a3024.017 3024.017 0 01-21.892 7.596l-.05.017a709.391 709.391 0 01-73.308 22.133c-7.993 1.551-15.776-3.511-17.6-11.446a33.05 33.05 0 01-2.058-15.063c.233-1.766.633-3.533 1.025-5.3a37.764 37.764 0 00.792-18.229 28.168 28.168 0 00-15.725-17.471c-.608-.346-1.225-.696-1.825-1.05a31.278 31.278 0 013.267-5.287 8.526 8.526 0 00-1.641-12.122c-2.05-1.513-6.925-5.167-10.433-7.967.433-.796.925-1.667 1.375-2.454 1.308-2.317 2.808-4.987 4.267-8.05a31.554 31.554 0 002.292-19.088c-1.992-10.462-11.992-15.558-19.292-19.283a49.46 49.46 0 01-7.092-4.108 43.732 43.732 0 01-5.025-4.071c.025-1.283 1.358-4.404 7.925-12.417a344.152 344.152 0 0038.992-63.392 24.643 24.643 0 003.342-11.571 29.754 29.754 0 00-12.5-21.358c-3.45-3.158-6.708-6.142-7.075-8.758a14.868 14.868 0 011.367-6c1.4-3.721 3.042-7.362 4.667-11.008a122.225 122.225 0 008.275-22.359l.725-3.112a208.274 208.274 0 017.1-25.713 144.993 144.993 0 0130.608-49.975c16.533-17.45 41.55-29.35 76.475-36.379a557.038 557.038 0 0180.05-11.483c48.3-2.429 89.733 12.071 134.409 47.121a123.168 123.168 0 0145.117 64.6 238.425 238.425 0 018.27 67.555z"/><path d="M433.444 138.011h-17.692a97.627 97.627 0 00-7.975-19.233l12.517-12.517a8.534 8.534 0 00.967-10.917 121.495 121.495 0 00-30.2-30.2 8.517 8.517 0 00-10.917.962l-12.517 12.517a97.584 97.584 0 00-19.242-7.975V52.953a8.539 8.539 0 00-7.033-8.4 122.975 122.975 0 00-42.717 0 8.538 8.538 0 00-7.033 8.4v17.696a97.584 97.584 0 00-19.242 7.975l-12.517-12.517a8.517 8.517 0 00-10.917-.962 121.478 121.478 0 00-30.2 30.2 8.533 8.533 0 00.967 10.917l12.517 12.517a97.627 97.627 0 00-7.975 19.233h-17.691a8.531 8.531 0 00-8.4 7.033 122.104 122.104 0 000 42.725 8.531 8.531 0 008.4 7.033h17.692a97.627 97.627 0 007.975 19.233l-12.517 12.517a8.534 8.534 0 00-.967 10.917 121.478 121.478 0 0030.2 30.2 8.546 8.546 0 0010.917-.962l12.517-12.517a97.584 97.584 0 0019.242 7.975v17.696a8.539 8.539 0 007.033 8.4 122.298 122.298 0 0042.717 0 8.538 8.538 0 007.033-8.4v-17.696a97.584 97.584 0 0019.242-7.975l12.517 12.517a8.542 8.542 0 0010.917.962 121.478 121.478 0 0030.2-30.2 8.533 8.533 0 00-.967-10.917l-12.517-12.517a97.652 97.652 0 007.975-19.233h17.692a8.531 8.531 0 008.4-7.033 122.104 122.104 0 000-42.725 8.535 8.535 0 00-8.401-7.034zm-7.391 39.726h-16.918a8.529 8.529 0 00-8.333 6.7 80.661 80.661 0 01-10.917 26.338 8.52 8.52 0 001.142 10.646l11.975 11.975a104.697 104.697 0 01-16.017 16.017l-11.975-11.971a8.533 8.533 0 00-10.642-1.15 80.584 80.584 0 01-26.35 10.925 8.533 8.533 0 00-6.7 8.333v16.917c-7.528.808-15.122.808-22.65 0V255.55a8.532 8.532 0 00-6.7-8.333 80.584 80.584 0 01-26.35-10.925 8.51 8.51 0 00-10.642 1.15l-11.975 11.971a104.697 104.697 0 01-16.017-16.017l11.975-11.975a8.52 8.52 0 001.142-10.646 80.652 80.652 0 01-10.917-26.338 8.53 8.53 0 00-8.333-6.7h-16.916a105.809 105.809 0 010-22.658h16.917a8.529 8.529 0 008.333-6.7 80.661 80.661 0 0110.917-26.338 8.52 8.52 0 00-1.142-10.646L236.985 99.42a104.697 104.697 0 0116.017-16.017l11.975 11.971a8.513 8.513 0 0010.642 1.15 80.584 80.584 0 0126.35-10.925 8.533 8.533 0 006.7-8.333V60.349a106.124 106.124 0 0122.65 0v16.917a8.532 8.532 0 006.7 8.333 80.584 80.584 0 0126.35 10.925 8.536 8.536 0 0010.642-1.15l11.975-11.971a104.697 104.697 0 0116.017 16.017l-11.975 11.975a8.52 8.52 0 00-1.142 10.646 80.652 80.652 0 0110.917 26.338 8.53 8.53 0 008.333 6.7h16.917c.811 7.53.811 15.127 0 22.658zm-221.259 69.737h-9.746a33.683 33.683 0 00-3.625-8.698l6.904-6.906a8.533 8.533 0 00-12.067-12.067l-6.905 6.906a33.795 33.795 0 00-8.695-3.624v-9.745a8.533 8.533 0 00-17.066 0v9.745a33.766 33.766 0 00-8.695 3.624l-6.904-6.906a8.53 8.53 0 00-14.275 3.825 8.535 8.535 0 002.208 8.242l6.904 6.906a33.683 33.683 0 00-3.625 8.698h-9.746c-4.713 0-8.533 3.82-8.533 8.533s3.82 8.533 8.533 8.533h9.746a33.683 33.683 0 003.625 8.698l-6.904 6.906a8.534 8.534 0 0012.067 12.067l6.904-6.906a33.787 33.787 0 008.696 3.624v9.745c0 4.713 3.82 8.533 8.533 8.533s8.533-3.82 8.533-8.533v-9.745a33.766 33.766 0 008.695-3.624l6.904 6.906a8.533 8.533 0 0012.067-12.067l-6.904-6.906a33.683 33.683 0 003.625-8.698h9.746c4.713 0 8.533-3.82 8.533-8.533s-3.82-8.533-8.533-8.533zm-42.667 25.6c-9.426 0-17.067-7.641-17.067-17.067s7.641-17.067 17.067-17.067 17.067 7.641 17.067 17.067c-.011 9.421-7.646 17.056-17.067 17.067zm-44.67-110.933a28.447 28.447 0 002.051 4.954l-4.615 4.617a8.534 8.534 0 0012.067 12.067l4.628-4.63a28.727 28.727 0 004.938 2.046v6.547c0 4.713 3.82 8.533 8.533 8.533s8.533-3.82 8.533-8.533v-6.547a28.569 28.569 0 004.938-2.046l4.629 4.631a8.533 8.533 0 0012.067-12.067l-4.616-4.618a28.364 28.364 0 002.052-4.953h6.53a8.533 8.533 0 000-17.066h-6.53a28.364 28.364 0 00-2.052-4.953l4.616-4.618a8.532 8.532 0 10-12.067-12.067l-4.629 4.631a28.64 28.64 0 00-4.938-2.044v-6.549c0-4.713-3.82-8.533-8.533-8.533s-8.533 3.82-8.533 8.533v6.55a28.64 28.64 0 00-4.938 2.044l-4.629-4.632a8.533 8.533 0 00-12.067 12.067l4.616 4.618a28.364 28.364 0 00-2.052 4.953h-6.53a8.533 8.533 0 000 17.066h6.531zm24.508-20.08a11.95 11.95 0 116.19 23.086 11.95 11.95 0 01-6.19-23.086z"/><path d="M319.994 110.941c-30.633 0-55.467 24.833-55.467 55.467.035 30.619 24.848 55.431 55.467 55.467 30.633 0 55.467-24.833 55.467-55.467s-24.834-55.467-55.467-55.467zm0 93.866c-21.208 0-38.4-17.192-38.4-38.4.023-21.198 17.202-38.377 38.4-38.4 21.208 0 38.4 17.192 38.4 38.4s-17.192 38.4-38.4 38.4z"/></symbol><symbol viewBox="0 0 512 512" id="icon-github" xmlns="http://www.w3.org/2000/svg"><path d="M255.968 5.329C114.624 5.329 0 120.401 0 262.353c0 113.536 73.344 209.856 175.104 243.872 12.8 2.368 17.472-5.568 17.472-12.384 0-6.112-.224-22.272-.352-43.712-71.2 15.52-86.24-34.464-86.24-34.464-11.616-29.696-28.416-37.6-28.416-37.6-23.264-15.936 1.728-15.616 1.728-15.616 25.696 1.824 39.2 26.496 39.2 26.496 22.848 39.264 59.936 27.936 74.528 21.344 2.304-16.608 8.928-27.936 16.256-34.368-56.832-6.496-116.608-28.544-116.608-127.008 0-28.064 9.984-51.008 26.368-68.992-2.656-6.496-11.424-32.64 2.496-68 0 0 21.504-6.912 70.4 26.336 20.416-5.696 42.304-8.544 64.096-8.64 21.728.128 43.648 2.944 64.096 8.672 48.864-33.248 70.336-26.336 70.336-26.336 13.952 35.392 5.184 61.504 2.56 68 16.416 17.984 26.304 40.928 26.304 68.992 0 98.72-59.84 120.448-116.864 126.816 9.184 7.936 17.376 23.616 17.376 47.584 0 34.368-.32 62.08-.32 70.496 0 6.88 4.608 14.88 17.6 12.352C438.72 472.145 512 375.857 512 262.353 512 120.401 397.376 5.329 255.968 5.329z"/></symbol><symbol viewBox="0 0 21 23" id="icon-hard-work" xmlns="http://www.w3.org/2000/svg"><path d="M20.867 13.07a2.153 2.153 0 00-.4-.67 13.944 13.944 0 00-1.76-3.97c-1.385-2.2-5.052-5.76-6.444-6.31a1.883 1.883 0 00-.191-.05 1.124 1.124 0 00-.7-.88C9.751.43 8.166-.32 7.065.14s-1.718 1.15-.529 3.81c1.131.83 3.369-.83 4.085.23s1.5 4.59 2.816 6.85a6.865 6.865 0 00-1.025-.07 6.5 6.5 0 00-3.833 1.15 4.624 4.624 0 00-8.377 1.36l-.2.01L.117 23l2.363-.04.857-1.51a11.8 11.8 0 004.477-3.61 40.488 40.488 0 004.6.38 28.207 28.207 0 005.352-.76c2.293-.84 3.685-2.81 3.101-4.39z"/></symbol><symbol viewBox="0 0 30 21" id="icon-mail" xmlns="http://www.w3.org/2000/svg"><path d="M11.29 11.516L.68 20.43a2.163 2.163 0 001.48.57h25.68a2.2 2.2 0 001.48-.57l-10.61-8.914L15 14.7zM27.84 0H2.16A2.193 2.193 0 00.68.573L15 12.6 29.32.569A2.162 2.162 0 0027.84 0zM0 19.29l10.36-8.624L0 1.844V19.29zm30 0V1.837l-10.36 8.829z"/></symbol><symbol viewBox="0 -23 512 512" id="icon-passionate" xmlns="http://www.w3.org/2000/svg"><path d="M217.613 342.492L244.488 268h-40.175c-15.477 0-25.25-16.41-17.72-29.832L232.677 156h70.984l-36.594 59h46.317c12.578 0 19.195 14.813 11 24.29L229.969 347.3c-1.711 1.704-4.305 2.688-6.758 2.7-3.5.016-6.227-1.855-6.211-5 .004-.758.195-1.594.613-2.508zM471.56 36.512C447.589 12.625 413.855 0 374 0c-54.457 0-88.848 25.969-108.11 47.754a157.293 157.293 0 00-9.437 11.781c-2.68-3.8-5.691-7.707-9.082-11.625C228.445 26.055 194.11 0 138 0 98.145 0 64.41 12.625 40.441 36.512 13.605 63.258 0 102.34 0 152.668c0 48.855 28.574 107.473 84.934 174.223 42.98 50.91 95.484 98.004 130.293 125.105A66.243 66.243 0 00256 466.016a66.276 66.276 0 0040.773-14.02c11.582-9.016 35.336-28.242 64.301-55.68 8.02-7.593 8.363-20.254.766-28.273s-20.254-8.36-28.274-.766c-27.742 26.278-50.351 44.582-61.367 53.157a26.338 26.338 0 01-32.398 0c-33.215-25.86-83.309-70.79-124.305-119.344C66.106 242.59 40 191.27 40 152.668 40 59.547 93.293 40 138 40c71.137 0 94.352 55.066 98.242 65.957C239 116 245.961 123 256 123c9.883 0 17-7 19.687-16.594C280.152 95.07 305.368 40 374 40c44.707 0 98 19.547 98 112.668 0 37.305-24.36 85.61-72.398 143.57-7.047 8.504-5.868 21.11 2.636 28.16a19.91 19.91 0 0012.75 4.602c5.75 0 11.457-2.465 15.41-7.238C485.308 255.516 512 200.203 512 152.668c0-50.328-13.605-89.41-40.441-116.156zm0 0"/></symbol><symbol viewBox="0 0 29 29" id="icon-phone" xmlns="http://www.w3.org/2000/svg"><path class="hcls-1" d="M28.99 22.885a1.43 1.43 0 01-.43 1.229l-4.09 4.054a2.219 2.219 0 01-.72.523 2.962 2.962 0 01-.87.276c-.02 0-.09 0-.19.016s-.23.015-.4.015a14.084 14.084 0 01-1.88-.2 14.393 14.393 0 01-3.2-.983 26.821 26.821 0 01-4.28-2.35 31.7 31.7 0 01-5.1-4.3 33.746 33.746 0 01-3.56-4.054A28.632 28.632 0 012 13.532a19.911 19.911 0 01-1.29-2.979 15.051 15.051 0 01-.58-2.3A7.2 7.2 0 010 6.733q.03-.553.03-.615a3.428 3.428 0 01.28-.875 2.328 2.328 0 01.52-.722L4.92.436a1.332 1.332 0 01.98-.43 1.134 1.134 0 01.7.23 2.185 2.185 0 01.53.569l3.28 6.235a1.478 1.478 0 01.16 1.075 1.958 1.958 0 01-.53.983l-1.5 1.5a.518.518 0 00-.11.2.744.744 0 00-.04.23 5.341 5.341 0 00.55 1.474 12.951 12.951 0 001.13 1.8 29.023 29.023 0 004.64 4.638 14.444 14.444 0 001.8 1.152 4.885 4.885 0 001.1.446l.39.076a.666.666 0 00.19-.046.448.448 0 00.2-.107l1.75-1.782a1.889 1.889 0 011.29-.491 1.591 1.591 0 01.83.184h.03l5.93 3.5a1.574 1.574 0 01.77 1.013z"/></symbol><symbol id="icon-rs" viewBox="0 0 552.8 205.3" xmlns="http://www.w3.org/2000/svg"><style>.ist0{fill:#fff}.ist5,.ist7{fill:#fff;stroke:#000;stroke-width:4;stroke-miterlimit:10}.ist7{fill:none}</style><path d="M285.4 68l26.3-1.7c.6 4.3 1.7 7.5 3.5 9.8 2.9 3.6 6.9 5.4 12.2 5.4 3.9 0 7-.9 9.1-2.8 2-1.5 3.2-3.9 3.2-6.4 0-2.4-1.1-4.7-3-6.2-2-1.8-6.7-3.6-14.1-5.2-12.1-2.7-20.8-6.3-25.9-10.9-5.1-4.3-8-10.6-7.8-17.3 0-4.6 1.4-9.2 4-13 3-4.3 7.1-7.7 12-9.6 5.3-2.3 12.7-3.5 22-3.5 11.4 0 20.1 2.1 26.1 6.4 6 4.2 9.6 11 10.7 20.3l-26 1.5c-.7-4-2.1-6.9-4.4-8.8s-5.3-2.8-9.2-2.8c-3.2 0-5.6.7-7.2 2-1.5 1.2-2.5 3-2.4 5 0 1.5.8 2.9 2 3.8 1.3 1.2 4.4 2.3 9.3 3.3 12.1 2.6 20.7 5.2 26 7.9 5.3 2.7 9.1 6 11.4 9.9 2.4 4 3.6 8.6 3.5 13.3 0 5.6-1.6 11.2-4.8 15.9-3.3 4.9-7.9 8.7-13.3 11-5.7 2.5-12.9 3.8-21.5 3.8-15.2 0-25.7-2.9-31.6-8.8S286.1 77 285.4 68zM6.3 97.6V8.2h46.1c8.5 0 15.1.7 19.6 2.2 4.4 1.4 8.3 4.3 10.9 8.2 2.9 4.3 4.3 9.3 4.2 14.5.3 8.8-4.2 17.2-11.9 21.6-3 1.7-6.3 2.9-9.7 3.5 2.5.7 5 1.9 7.2 3.3 1.7 1.4 3.1 3 4.4 4.7 1.5 1.7 2.8 3.6 3.9 5.6l13.4 25.9H63L48.2 70.2c-1.9-3.5-3.5-5.8-5-6.9-2-1.4-4.4-2.1-6.8-2.1H34v36.3H6.3zM34 44.4h11.7c2.5-.2 4.9-.6 7.3-1.2 1.8-.3 3.4-1.3 4.5-2.8 2.7-3.6 2.3-8.7-1-11.8-1.8-1.5-5.3-2.3-10.3-2.3H34v18.1zM0 174.2l26.3-1.7c.6 4.3 1.7 7.5 3.5 9.8 2.8 3.6 6.9 5.5 12.2 5.5 3.9 0 7-.9 9.1-2.8 2-1.6 3.2-3.9 3.2-6.4 0-2.4-1.1-4.7-3-6.2-2-1.8-6.7-3.6-14.2-5.2-12.1-2.7-20.8-6.3-25.9-10.9-5.1-4.3-8-10.6-7.8-17.3 0-4.6 1.4-9.2 4-13 3-4.3 7.1-7.7 12-9.6 5.3-2.3 12.7-3.5 22-3.5 11.4 0 20.1 2.1 26.1 6.4s9.5 11 10.6 20.3l-26 1.5c-.7-4-2.1-6.9-4.4-8.8-2.2-1.9-5.3-2.8-9.2-2.7-3.2 0-5.6.7-7.2 2.1-1.6 1.2-2.5 3-2.4 5 0 1.5.8 2.9 2 3.8 1.3 1.2 4.4 2.3 9.3 3.3 12.1 2.6 20.7 5.2 26 7.9 5.3 2.7 9.1 6 11.4 9.9 2.4 4 3.6 8.6 3.6 13.2 0 5.6-1.7 11.1-4.8 15.8-3.3 4.9-7.9 8.7-13.3 11-5.7 2.5-12.9 3.8-21.5 3.8-15.2 0-25.7-2.9-31.6-8.8-5.9-6-9.2-13.4-10-22.4z"/><path d="M133 167.2l24.2 7.3c-1.3 6.1-4 11.9-7.7 17-3.4 4.5-7.9 8-13 10.3-5.2 2.3-11.8 3.5-19.8 3.5-9.7 0-17.7-1.4-23.8-4.2-6.2-2.8-11.5-7.8-16-14.9-4.5-7.1-6.7-16.2-6.7-27.3 0-14.8 3.9-26.2 11.8-34.1s19-11.9 33.4-11.9c11.3 0 20.1 2.3 26.6 6.8 6.4 4.6 11.2 11.6 14.4 21l-24.4 5.4c-.6-2.1-1.5-4.2-2.7-6-1.5-2.1-3.4-3.7-5.7-4.9-2.3-1.2-4.9-1.7-7.5-1.7-6.3 0-11.1 2.5-14.4 7.6-2.5 3.7-3.8 9.6-3.8 17.6 0 9.9 1.5 16.7 4.5 20.4 3 3.7 7.2 5.5 12.7 5.5 5.3 0 9.3-1.5 12-4.4 2.7-3.1 4.7-7.4 5.9-13zm56.5-52.8h27.6v31.3h30.2v-31.3h27.8v89.4h-27.8v-36.2h-30.2v36.2h-27.6v-89.4z"/><path d="M271.3 159.1c0-14.6 4.1-26 12.2-34.1 8.1-8.1 19.5-12.2 34-12.2 14.9 0 26.3 4 34.4 12S364 144 364 158.4c0 10.5-1.8 19-5.3 25.7-3.4 6.6-8.7 12-15.2 15.6-6.7 3.7-15 5.6-24.9 5.6-10.1 0-18.4-1.6-25-4.8-6.8-3.4-12.4-8.7-16.1-15.2-4.1-7-6.2-15.7-6.2-26.2zm27.6.1c0 9 1.7 15.5 5 19.5 3.3 3.9 7.9 5.9 13.7 5.9 5.9 0 10.5-1.9 13.8-5.8s4.9-10.8 4.9-20.8c0-8.4-1.7-14.6-5.1-18.4-3.4-3.9-8-5.8-13.8-5.8-5.1-.2-10 2-13.4 5.9-3.4 3.9-5.1 10.4-5.1 19.5zm93.4-.1c0-14.6 4.1-26 12.2-34.1 8.1-8.1 19.5-12.2 34-12.2 14.9 0 26.4 4 34.4 12S485 144 485 158.4c0 10.5-1.8 19-5.3 25.7-3.4 6.6-8.7 12-15.2 15.6-6.7 3.7-15 5.6-24.9 5.6-10.1 0-18.4-1.6-25-4.8-6.8-3.4-12.4-8.7-16.1-15.2-4.1-7-6.2-15.7-6.2-26.2zm27.6.1c0 9 1.7 15.5 5 19.5 3.3 3.9 7.9 5.9 13.7 5.9 5.9 0 10.5-1.9 13.8-5.8 3.3-3.9 4.9-10.8 4.9-20.8 0-8.4-1.7-14.6-5.1-18.4-3.4-3.9-8-5.8-13.8-5.8-5.1-.2-10.1 2-13.4 5.9-3.4 3.9-5.1 10.4-5.1 19.5z"/><path d="M482.1 114.4h27.6v67.4h43.1v22H482v-89.4z"/><ellipse transform="rotate(-37.001 420.46 67.88)" class="ist0" cx="420.5" cy="67.9" rx="63" ry="51.8"/><defs><ellipse id="iSVGID_1_" transform="rotate(-37.001 420.46 67.88)" cx="420.5" cy="67.9" rx="63" ry="51.8"/></defs><clipPath id="iSVGID_2_"><use xlink:href="#iSVGID_1_" overflow="visible"/></clipPath><path transform="rotate(-37.001 420.82 68.353)" class="ist0" d="M330.9-14.2h179.8v165.1H330.9z"/><g id="iLayer_2_1_"><defs><path id="iSVGID_3_" transform="rotate(-37.001 420.82 68.353)" d="M330.9-14.2h179.8v165.1H330.9z"/></defs><clipPath id="iSVGID_4_"><use xlink:href="#iSVGID_3_" overflow="visible"/></clipPath><g id="iLayer_1-2"><ellipse transform="rotate(-37.001 420.46 67.88)" class="ist0" cx="420.5" cy="67.9" rx="63" ry="51.8"/><defs><ellipse id="iSVGID_5_" transform="rotate(-37.001 420.46 67.88)" cx="420.5" cy="67.9" rx="63" ry="51.8"/></defs><clipPath id="iSVGID_6_"><use xlink:href="#iSVGID_5_" overflow="visible"/></clipPath><path transform="rotate(-37 420.799 68.802)" class="ist0" d="M357.8 17h125.9v103.7H357.8z"/><defs><path id="iSVGID_7_" transform="rotate(-37 420.799 68.802)" d="M357.8 17h125.9v103.7H357.8z"/></defs><clipPath id="iSVGID_8_"><use xlink:href="#iSVGID_7_" overflow="visible"/></clipPath><ellipse transform="rotate(-37.001 420.46 67.88)" class="ist5" cx="420.5" cy="67.9" rx="63" ry="51.8"/><path transform="rotate(-37 420.799 68.802)" d="M357.8 17h125.9v103.7H357.8z"/><ellipse transform="rotate(-37.001 420.46 67.88)" class="ist7" cx="420.5" cy="67.9" rx="63" ry="51.8"/><path transform="rotate(-37 420.799 68.802)" class="ist0" d="M357.8 17h125.9v103.7H357.8z"/><defs><path id="iSVGID_9_" transform="rotate(-37 420.799 68.802)" d="M357.8 17h125.9v103.7H357.8z"/></defs><clipPath id="iSVGID_10_"><use xlink:href="#iSVGID_9_" overflow="visible"/></clipPath><ellipse transform="rotate(-37.001 420.46 67.88)" class="ist5" cx="420.5" cy="67.9" rx="63" ry="51.8"/><path transform="rotate(-37 420.799 68.802)" d="M357.8 17h125.9v103.7H357.8z"/><path transform="rotate(-37.001 420.82 68.353)" class="ist7" d="M330.9-14.2h179.8v165.1H330.9z"/><ellipse transform="rotate(-37.001 420.46 67.88)" class="ist7" cx="420.5" cy="67.9" rx="63" ry="51.8"/><path d="M392.4 61.3l10-7 12.3 17.5c2.1 2.8 3.7 5.8 4.9 9.1.7 2.5.5 5.2-.5 7.6-1.3 3-3.4 5.5-6.2 7.3-3.3 2.3-6.1 3.6-8.5 4-2.3.4-4.7 0-6.9-1-2.4-1.2-4.5-2.9-6.1-5.1l8.6-8c.7 1.1 1.6 2.1 2.6 2.9.7.5 1.5.8 2.4.8.7 0 1.4-.3 1.9-.7 1-.6 1.7-1.8 1.6-3-.3-1.7-1-3.4-2.1-4.7l-14-19.7zm30 11.1l9.1-7.2c1 1.2 2.3 2.1 3.7 2.6 2 .6 4.1.2 5.8-1.1 1.2-.8 2.2-1.9 2.6-3.3.6-1.8-.4-3.8-2.2-4.4-.3-.1-.6-.2-.9-.2-1.2-.1-3.3.4-6.4 1.7-5.1 2.1-9.1 2.9-12.1 2.6-2.9-.3-5.6-1.8-7.2-4.3-1.2-1.7-1.8-3.7-1.9-5.7 0-2.3.6-4.6 1.9-6.5 1.9-2.7 4.2-5 7-6.8 4.2-2.9 7.9-4.3 11.1-4.3 3.2 0 6.2 1.5 9 4.6l-9 7.1c-1.8-2.3-5.2-2.8-7.5-1l-.3.3c-1 .6-1.7 1.5-2.1 2.6-.3.8-.1 1.7.4 2.4.4.5 1 .9 1.7.9.8.1 2.2-.3 4.2-1.2 5-2.1 8.8-3.3 11.4-3.7 2.2-.4 4.5-.2 6.6.7 1.9.8 3.5 2.2 4.6 3.9 1.4 2 2.2 4.4 2.3 6.9.1 2.6-.6 5.1-2 7.3-1.8 2.7-4.1 5-6.8 6.8-5.5 3.8-10 5.4-13.6 4.8-3.9-.6-7.1-2.6-9.4-5.5z"/></g></g></symbol><symbol viewBox="0 0 24 24" id="icon-telegram" xmlns="http://www.w3.org/2000/svg"><path d="M9.417 15.181l-.397 5.584c.568 0 .814-.244 1.109-.537l2.663-2.545 5.518 4.041c1.012.564 1.725.267 1.998-.931L23.93 3.821l.001-.001c.321-1.496-.541-2.081-1.527-1.714l-21.29 8.151c-1.453.564-1.431 1.374-.247 1.741l5.443 1.693L18.953 5.78c.595-.394 1.136-.176.691.218z"/></symbol><symbol viewBox="0 0 24 24" id="icon-viber" xmlns="http://www.w3.org/2000/svg"><path d="M23.155 13.893c.716-6.027-.344-9.832-2.256-11.553l.001-.001C17.814-.6 7.392-1.035 3.7 2.471 2.042 4.186 1.458 6.703 1.394 9.819c-.064 3.117-.14 8.956 5.301 10.54H6.7l-.005 2.419s-.037.98.589 1.177c.716.232 1.04-.223 3.267-2.883 3.724.323 6.584-.417 6.909-.525.752-.252 5.007-.815 5.695-6.654zM10.918 19.37s-2.357 2.939-3.09 3.702c-.24.248-.503.225-.499-.267 0-.323.018-4.016.018-4.016-4.613-1.322-4.341-6.294-4.291-8.895.05-2.602.526-4.733 1.93-6.168C8.225.689 17.362 1.368 19.69 3.556c2.846 2.523 1.833 9.651 1.839 9.894-.585 4.874-4.033 5.183-4.667 5.394-.271.09-2.786.737-5.944.526z"/><path d="M12.222 4.297c-.385 0-.385.6 0 .605 2.987.023 5.447 2.105 5.474 5.924 0 .403.59.398.585-.005h-.001c-.032-4.115-2.718-6.501-6.058-6.524z"/><path d="M16.151 10.193c-.009.398.58.417.585.014.049-2.269-1.35-4.138-3.979-4.335-.385-.028-.425.577-.041.605 2.28.173 3.481 1.729 3.435 3.716zm-.63 2.581c-.494-.286-.997-.108-1.205.173l-.435.563c-.221.286-.634.248-.634.248-3.014-.797-3.82-3.951-3.82-3.951s-.037-.427.239-.656l.544-.45c.272-.216.444-.736.167-1.247-.74-1.337-1.237-1.798-1.49-2.152-.266-.333-.666-.408-1.082-.183h-.009c-.865.506-1.812 1.453-1.509 2.428.517 1.028 1.467 4.305 4.495 6.781 1.423 1.171 3.675 2.371 4.631 2.648l.009.014c.942.314 1.858-.67 2.347-1.561v-.007c.217-.431.145-.839-.172-1.106-.562-.548-1.41-1.153-2.076-1.542z"/><path d="M13.169 8.104c.961.056 1.427.558 1.477 1.589.018.403.603.375.585-.028-.064-1.346-.766-2.096-2.03-2.166-.385-.023-.421.582-.032.605z"/></symbol></svg>